# xmcd CD database file
#
# Track frame offsets:
#	150
#	14000
#	30875
#	41150
#	55100
#	69687
#	83075
#	99275
#	112425
#	129950
#	143000
#
# Disc length: 2135 seconds
#
# Revision: 2
# Processed by: cddbd v1.5.2PL0 Copyright (c) Steve Scherf et al.
# Submitted via: CDex 1.77
#
DISCID=9008550b
DTITLE=Darcey Leyer and The Wolverines - Running Free
DYEAR=1900
DGENRE=Country
TTITLE0=If I Had My Way
TTITLE1=Like Your Mamma Said
TTITLE2=Don't Let This Poor Boy Down
TTITLE3=Nashville, Tennessee
TTITLE4=The Wolverine
TTITLE5=Shame, Shame, Shame
TTITLE6=Baby I'm Drowning
TTITLE7=Running Free
TTITLE8=I Want To Be All Over You
TTITLE9=Everybody's Got To Win
TTITLE10=They Like It
EXTD=
EXTT0=
EXTT1=
EXTT2=
EXTT3=
EXTT4=
EXTT5=
EXTT6=
EXTT7=
EXTT8=
EXTT9=
EXTT10=
PLAYORDER=
